<svg width="175" height="30" viewBox="0 0 175 30" fill="none" xmlns="http://www.w3.org/2000/svg">
<path d="M36.1125 7.41016L34.0213 3.75547L32.3128 3.78614C32.0634 3.79053 27.6491 2.3006 27.6491 2.3006C24.6259 1.2467 21.4716 0.718658 18.3172 0.718658C18.3172 0.718658 18.3106 0.718658 18.3063 0.718658C18.3019 0.718658 18.2997 0.718658 18.2953 0.718658C15.1409 0.718658 11.9866 1.2467 8.96344 2.3006C8.96344 2.3006 4.54906 3.79272 4.29969 3.78614L2.59125 3.75547L0.5 7.41016C2.23469 8.31288 4.17281 10.1534 4.05906 12.1056L4.0175 12.8111C3.71344 18.028 5.95563 22.8133 8.51281 25.3747C10.3831 25.3747 12.0872 26.4527 12.8922 28.1442L13.4325 29.2813H23.1822L23.7225 28.1442C24.5275 26.4527 26.2294 25.3747 28.1019 25.3747C30.6591 22.8133 32.9034 18.028 32.5972 12.8111L32.5556 12.1056C32.4419 10.1512 34.38 8.31288 36.1147 7.41016H36.1125ZM17.1556 27.3181H15.095L13.0891 24.564C12.2513 23.4159 12.5028 21.8032 13.6491 20.9663L17.1797 18.3852L17.1534 27.3181H17.1556ZM23.5234 24.5662L21.5175 27.3203H19.4569L19.4306 18.3874L22.9613 20.9684C24.1075 21.8076 24.3591 23.418 23.5213 24.5662H23.5234ZM25.4528 12.2699H25.4769L23.2413 13.8891L22.9984 14.0666L20.5988 15.8041C19.2425 16.7879 17.4072 16.7879 16.0509 15.8041L13.6141 14.0381V14.0688L4.14656 7.13189L11.0306 7.11875C11.0613 7.11875 11.0897 7.11875 11.1181 7.11875C12.96 7.17791 13.8656 9.39964 12.6297 10.7669L11.2734 12.2677L14.1609 11.709C16.8888 11.181 19.6931 11.1766 22.4231 11.7003L25.3916 12.2677L24.0069 10.7691C22.7534 9.41279 23.6525 7.17791 25.4944 7.11875C25.5228 7.11875 25.5534 7.11875 25.5819 7.11875L32.4659 7.13189L25.4528 12.2699Z" fill="#141414"/>
<path d="M80.1267 11.2806V8.13647H75.1436V25.5729H80.1267V17.179C80.1267 14.2298 82.3273 12.3192 85.8864 12.6413V7.94147C83.2986 7.97433 81.3254 9.13998 80.1267 11.2806Z" fill="#141414"/>
<path d="M96.0784 7.97433C90.7715 7.97433 87.1162 11.5392 87.1162 16.9182C87.1162 22.2973 90.6425 25.7657 96.2075 25.7657C99.3465 25.7657 101.902 24.6308 103.649 22.6873L101.029 20.0295C99.8321 21.2281 98.279 21.8766 96.6275 21.8766C94.394 21.8766 92.7118 20.5795 92.13 18.3753H104.618C105.038 12.0234 102.192 7.97214 96.0762 7.97214L96.0784 7.97433ZM92.0337 15.4283C92.4209 13.1277 93.9106 11.6356 96.1112 11.6356C98.3118 11.6356 99.8978 13.1255 99.9612 15.4283H92.0337Z" fill="#141414"/>
<path d="M115.491 7.94147C112.45 7.94147 110.217 8.65575 107.629 9.95067L109.182 13.3863C110.993 12.3806 112.804 11.8635 114.36 11.8635C116.755 11.8635 117.984 12.9327 117.984 14.7798V15.104H113.196C108.926 15.1369 106.563 17.0804 106.563 20.3538C106.563 23.6273 108.828 25.7986 112.551 25.7986C114.977 25.7986 116.853 24.9879 118.019 23.5309V25.5729H122.904L122.871 14.1969C122.838 10.2749 120.154 7.94147 115.495 7.94147H115.491ZM117.982 19.6089C117.691 21.0988 116.04 22.2338 113.938 22.2338C112.255 22.2338 111.218 21.3595 111.218 20.0295C111.218 18.6996 112.157 18.0532 114.067 18.0532H117.982V19.6089Z" fill="#141414"/>
<path d="M133.642 20.8402L129.532 8.13647L124.387 8.16934L130.989 25.5729H136.101L142.67 8.13647H137.717L133.642 20.8402Z" fill="#141414"/>
<path d="M151.761 7.97433C146.454 7.97433 142.799 11.5392 142.799 16.9182C142.799 22.2973 146.325 25.7657 151.89 25.7657C155.029 25.7657 157.584 24.6308 159.332 22.6873L156.711 20.0295C155.515 21.2281 153.962 21.8766 152.31 21.8766C150.079 21.8766 148.394 20.5795 147.813 18.3753H160.301C160.721 12.0234 157.875 7.97214 151.759 7.97214L151.761 7.97433ZM147.716 15.4283C148.104 13.1277 149.593 11.6356 151.792 11.6356C153.99 11.6356 155.578 13.1255 155.642 15.4283H147.714H147.716Z" fill="#141414"/>
<path d="M68.8006 21.629C67.7331 21.6619 67.1184 21.0769 67.1184 19.6198V12.4244H71.8434V8.95593H67.1184V4.1597H62.1681V8.95593H59.7422V12.3915H62.1681V20.4612C62.1681 24.0589 64.5306 25.8402 67.6369 25.8402C69.2556 25.8402 70.8722 25.3867 72.1672 24.6417L71.1325 20.9805C70.2269 21.4012 69.4503 21.629 68.8028 21.629H68.8006Z" fill="#141414"/>
<path d="M168.586 11.2806V8.13647H163.603L163.609 25.7767H168.581L168.588 17.179C168.588 14.2298 170.788 12.3192 174.348 12.6413V7.94147C171.76 7.97433 169.784 9.13998 168.588 11.2806H168.586Z" fill="#141414"/>
<path d="M48.8721 12.867C48.8721 11.9599 49.7121 11.5699 50.878 11.5699C52.3349 11.5699 54.2752 12.1855 56.1849 13.2548L57.8999 9.85206C55.9574 8.62069 53.4986 7.9064 51.1055 7.9064C47.3189 7.9064 44.2455 9.75347 44.2455 13.3512C44.2455 19.4752 53.2733 17.9853 53.2733 20.7723C53.2733 21.7123 52.3349 22.133 51.0727 22.133C49.8105 22.133 48.4411 21.8065 47.1133 21.2061C46.6933 21.0002 46.4833 20.8731 46.4833 20.8731L44.1143 23.7784C44.1143 23.7784 44.3855 23.9932 45.033 24.3854C46.7699 25.2881 48.8371 25.7635 50.9436 25.7635C54.8899 25.7635 58.029 23.8836 58.029 20.3188C58.0618 14.1619 48.8721 15.4897 48.8721 12.8648V12.867Z" fill="#141414"/>
</svg>
